<svg width="393" height="296" viewBox="0 0 393 296" fill="none" xmlns="http://www.w3.org/2000/svg">
<path d="M324.908 280.133C324.908 280.133 373.735 245.255 387.791 185.887C401.847 126.521 380.393 54.5385 339.704 18.176C299.016 -18.1856 225.776 6.30299 193.223 36.7285L160.673 67.154C160.673 67.154 129.602 84.2216 88.9124 82.7376C48.2228 81.2536 11.9742 136.91 2.35651 180.694C-7.26123 224.476 15.6724 282.358 15.6724 282.358L324.908 280.133Z" fill="#D8EDFF"/>
<mask id="mask0_59_3" style="mask-type:luminance" maskUnits="userSpaceOnUse" x="0" y="2" width="392" height="288">
<path d="M391.337 2.12441H0.381012V289.78H391.337V2.12441Z" fill="white"/>
</mask>
<g mask="url(#mask0_59_3)">
<path d="M347.103 289.037C347.103 289.037 381.133 270.486 390.011 227.445C398.888 184.404 360.419 145.073 356.72 123.553C353.021 102.032 361.159 75.3172 327.128 54.5383C293.097 33.7602 232.434 41.1803 209.5 35.9858C186.567 30.7913 159.934 -4.82874 114.066 3.33471C68.1986 11.4973 23.8109 35.9858 21.5913 89.4168C19.3717 142.847 36.3875 144.331 19.3717 173.272C2.35675 202.214 -4.30118 222.25 3.83618 251.933C11.9745 281.617 28.9894 289.78 28.9894 289.78L347.103 289.037Z" fill="#D8EDFF"/>
</g>
<mask id="mask1_59_3" style="mask-type:luminance" maskUnits="userSpaceOnUse" x="63" y="113" width="228" height="177">
<path d="M290.876 113.25H63.2823V289.038H290.876V113.25Z" fill="white"/>
</mask>
<g mask="url(#mask1_59_3)">
<path d="M276.044 279.391C278.161 277.165 309.209 214.83 274.632 157.688C240.056 100.548 153.263 107.227 118.687 129.489C84.1105 151.752 67.1751 180.694 63.6468 211.118C60.1185 241.545 83.4052 289.038 83.4052 289.038L276.044 279.391Z" fill="#D8EDFF"/>
</g>
<path d="M32.5977 174.447H72.4855C74.9536 174.447 76.9551 172.44 76.9551 169.964V149.99C76.9551 147.513 74.9536 145.506 72.4855 145.506H32.5977C30.1287 145.506 28.1281 147.513 28.1281 149.99V169.964C28.1281 172.44 30.1287 174.447 32.5977 174.447Z" fill="#0DAAFF"/>
<path d="M52.5404 185.764L46.2195 170.737H58.8613L52.5404 185.764Z" fill="#0DAAFF"/>
<path d="M52.6924 155.007H41.2743V156.683L35.6766 153.445L41.2743 150.208V151.884H52.6924V155.007Z" fill="#04377D"/>
<path d="M35.6756 161.593H47.0937V159.917L52.6914 163.154L47.0937 166.392V164.715H35.6756V161.593Z" fill="white"/>
<path d="M59.6995 164.539L60.243 164.738C60.243 164.738 61.937 162.797 62.8166 160.684C63.6963 158.571 63.7266 155.991 63.7266 155.991L63.3297 155.824L65.7442 150.028C66.1742 150.365 66.5845 150.799 66.9162 151.361C68.283 153.677 68.1471 157.232 66.7722 160.705C65.3983 164.177 63.9287 167.274 61.2469 169.221C59.6647 170.371 58.3086 170.573 57.2564 170.405L59.6995 164.539Z" fill="#04377D"/>
<path d="M57.9659 163.857L58.7168 164.13L56.2451 170.065C55.9662 169.973 55.715 169.86 55.4978 169.741C54.8595 169.39 54.5797 168.62 54.8488 167.942L56.1396 164.679C56.4257 163.954 57.2356 163.59 57.9659 163.857Z" fill="#04377D"/>
<path d="M63.857 149.011C64.1609 149.121 64.4917 149.27 64.8242 149.467L62.3588 155.387L61.5292 155.039C60.8087 154.737 60.4601 153.915 60.7444 153.186L62.0405 149.848C62.3212 149.123 63.1276 148.748 63.857 149.011Z" fill="#04377D"/>
<path d="M287.58 269.372V202.585C287.58 202.585 288.32 184.589 278.888 179.394C269.456 174.2 229.691 176.983 229.691 176.983V269.372H287.58Z" fill="#0084FF"/>
<path d="M217.269 114.462C217.269 114.462 219.673 134.684 220.598 136.353L221.522 138.023L226.146 141.177C226.146 141.177 217.269 153.792 206.357 155.833C195.445 157.874 196.37 151.381 196.37 151.381L198.034 147.856L195.815 128.561C195.815 128.561 215.604 119.471 217.269 114.462Z" fill="#FF9E8C"/>
<path d="M231.88 142.847L224.667 139.693C224.667 139.693 220.043 147.3 209.316 151.752C198.589 156.204 198.404 153.607 197.849 151.752C197.295 149.896 198.034 147.856 198.034 147.856L197.24 141.36L192.951 142.794L178.059 263.621L216.344 265.477L231.88 142.847Z" fill="white"/>
<path d="M196.555 141.486C196.555 141.486 193.966 147.484 191.561 161.585C189.157 175.684 186.937 199.431 186.382 215.757C185.828 232.083 185.458 269.373 185.458 269.373H137.186C136.631 269.373 133.302 251.006 133.302 251.006C133.302 251.006 154.386 232.887 155.495 229.919C156.235 227.94 155.865 191.268 159.01 174.386C162.155 157.503 166.222 154.102 174.73 149.896C183.523 145.55 196.555 141.486 196.555 141.486Z" fill="#04377D"/>
<path d="M171.402 248.115C171.649 248.115 171.849 247.914 171.849 247.666C171.849 246.34 172.084 227.494 172.311 209.269C172.538 191.041 172.773 172.193 172.773 170.86C172.773 170.612 172.574 170.412 172.326 170.412C172.08 170.412 171.88 170.612 171.88 170.86C171.88 172.187 171.644 191.032 171.418 209.258C171.19 227.485 170.955 246.334 170.955 247.666C170.955 247.914 171.155 248.115 171.402 248.115Z" fill="#8094B9"/>
<path d="M267.576 243.585L267.946 269.373H211.721C211.721 269.373 209.317 247.481 210.242 245.44C211.166 243.399 267.576 243.585 267.576 243.585Z" fill="#04377D"/>
<mask id="mask2_59_3" style="mask-type:luminance" maskUnits="userSpaceOnUse" x="195" y="116" width="21" height="25">
<path d="M215.724 116.649H195.816V140.035H215.724V116.649Z" fill="white"/>
</mask>
<g mask="url(#mask2_59_3)">
<path d="M205.002 135.797C202.711 137.65 199.577 139.136 197.136 140.036L195.816 128.562C195.816 128.562 210.681 121.731 215.725 116.649C214.671 122.423 212.078 130.074 205.002 135.797Z" fill="#8A9CBE"/>
</g>
<path d="M178.43 76.8008C178.43 76.8008 174.546 83.4802 173.807 91.6428C173.067 99.8053 173.807 120.77 180.465 129.675C187.124 138.58 200.995 135.982 207.283 130.602C213.054 125.665 218.75 120.213 220.229 109.453C221.709 98.6925 217.085 78.2848 203.954 74.0184C190.822 69.751 178.43 76.8008 178.43 76.8008Z" fill="#FF9E8C"/>
<path d="M161.745 257.709C161.745 257.709 162.397 257.709 163.39 257.683C163.623 257.674 163.882 257.683 164.15 257.674C165.107 257.647 166.269 257.62 167.44 257.584C167.699 257.575 167.967 257.566 168.226 257.557C169.388 257.53 170.381 257.674 171.31 257.62H171.336C171.534 257.611 171.82 257.638 172.052 257.647C172.169 257.656 172.276 257.665 172.347 257.656C172.884 257.557 172.991 257.431 173.571 257.171C174.323 256.831 184.487 254.553 192.756 254.607C201.015 254.643 208.426 255.208 209.633 254.194C210.849 253.163 211.582 242.753 204.529 242.071L195.858 245.371C195.858 245.371 176.057 243.013 168.798 248.384C161.522 253.755 161.745 257.709 161.745 257.709Z" fill="#FF9E8C"/>
<path d="M171.337 257.62C171.535 257.61 171.82 257.638 172.053 257.646C172.231 257.36 172.607 256.84 172.812 256.625C175.047 254.338 180.446 252.858 182.405 252.383C182.583 252.338 182.7 252.158 182.654 251.98C182.618 251.801 182.431 251.693 182.243 251.729C179.392 252.418 173.34 254.186 171.623 257.081C171.57 257.162 171.427 257.441 171.337 257.62Z" fill="#04377D"/>
<path d="M167.437 257.583C167.696 257.577 167.964 257.57 168.223 257.556C170.663 253.091 174.656 251.811 179.59 250.218L179.882 250.121C180.05 250.063 180.154 249.872 180.095 249.694C180.037 249.526 179.856 249.422 179.67 249.481L179.386 249.577C174.169 251.256 169.972 252.606 167.437 257.583Z" fill="#04377D"/>
<path d="M163.389 257.682C163.621 257.676 163.881 257.679 164.15 257.672C165.629 254.551 170.527 249.328 177.007 248.11C177.194 248.079 177.315 247.906 177.284 247.718C177.244 247.539 177.071 247.419 176.893 247.45C170.218 248.707 164.833 254.176 163.389 257.682Z" fill="#04377D"/>
<path d="M215.789 100.27C215.789 100.27 211.72 98.3212 208.853 92.8487C205.987 87.3762 206.357 82.4597 206.357 82.4597C206.357 82.4597 201.178 81.6249 193.41 83.9437C185.643 86.2626 176.395 89.4162 168.628 84.9641C160.859 80.5112 160.859 73.3691 164.651 70.4001C168.897 67.0761 177.319 69.1017 177.319 69.1017C177.319 69.1017 174.083 65.9481 175.84 64.0928C177.597 62.2376 183.978 64.6497 183.978 64.6497C183.978 64.6497 191.745 58.4347 206.449 59.1763C221.153 59.9188 228.181 70.2145 229.013 81.7172C229.845 93.22 225.684 104.722 225.684 104.722L215.789 100.27Z" fill="#04377D"/>
<mask id="mask3_59_3" style="mask-type:luminance" maskUnits="userSpaceOnUse" x="182" y="102" width="8" height="18">
<path d="M189.762 102.832H182.11V119.192H189.762V102.832Z" fill="white"/>
</mask>
<g mask="url(#mask3_59_3)">
<path d="M185.96 103.057C186.793 105.118 186.772 107.51 186.982 109.697C187.145 111.398 187.457 113.382 185.903 114.531C185.161 115.079 181.65 116.559 183.456 117.758C184.144 118.215 185.298 118.09 186.081 118.054C186.621 118.029 187.166 118.005 187.706 117.965C188.286 117.922 188.853 117.746 189.434 117.743C189.775 117.742 189.88 118.196 189.603 118.37C188.669 118.957 187.301 119.137 186.212 119.179C185.123 119.222 184.385 119.172 183.405 118.684C182.801 118.384 182.217 117.959 182.122 117.24C182.014 116.432 182.619 115.706 183.226 115.254C183.926 114.734 184.784 114.492 185.49 113.985C186.469 113.281 186.388 112.098 186.319 111C186.155 108.363 185.549 105.771 185.314 103.145C185.279 102.744 185.832 102.744 185.96 103.057Z" fill="#8A9CBE"/>
</g>
<path d="M178.4 109.227C178.676 110.79 179.81 111.897 180.934 111.697C182.056 111.498 182.743 110.068 182.468 108.505C182.191 106.941 181.058 105.834 179.934 106.033C178.811 106.233 178.124 107.663 178.4 109.227Z" fill="#04377D"/>
<path d="M192.551 107.987C192.802 109.675 193.986 110.895 195.198 110.715C196.41 110.534 197.19 109.019 196.94 107.333C196.689 105.645 195.504 104.424 194.292 104.605C193.081 104.786 192.301 106.301 192.551 107.987Z" fill="#04377D"/>
<path d="M181.695 102.78C180.83 102.926 179.959 102.778 179.086 102.839C178.877 102.854 178.67 102.884 178.46 102.905C178.312 102.918 178.737 102.86 178.531 102.894C178.486 102.902 178.442 102.909 178.398 102.917C178.288 102.936 178.179 102.959 178.072 102.986C177.886 103.031 177.706 103.1 177.52 103.142C177.352 103.178 177.164 103.218 176.993 103.21C176.899 103.197 176.804 103.185 176.709 103.172C176.768 103.182 176.829 103.193 176.888 103.204C176.889 103.225 176.564 103.172 176.535 103.166C176.039 103.049 175.732 102.474 175.871 101.994C175.911 101.855 175.973 101.729 176.059 101.616C176.096 101.566 176.134 101.519 176.173 101.471C176.138 101.511 176.103 101.551 176.068 101.591C176.105 101.539 176.143 101.489 176.184 101.439C176.233 101.356 176.298 101.29 176.381 101.241C176.45 101.188 176.518 101.131 176.589 101.081C176.819 100.921 177.12 100.828 177.392 100.758C177.908 100.625 178.449 100.557 178.981 100.554C179.51 100.551 180.032 100.607 180.555 100.679C181.015 100.744 181.528 100.901 181.903 101.18C182.193 101.396 182.37 101.673 182.319 102.052C182.277 102.366 182.031 102.724 181.695 102.78Z" fill="#04377D"/>
<path d="M191.559 100.299C191.676 100.229 191.797 100.168 191.92 100.111C192.025 100.063 192.312 99.9121 192.096 100.031C192.174 99.9875 192.253 99.9444 192.333 99.9041C192.692 99.7229 193.064 99.6019 193.45 99.5023C194.295 99.2871 195.183 99.2324 196.048 99.3239C196.971 99.4207 197.815 99.6449 198.614 100.129C198.727 100.197 198.843 100.264 198.937 100.359C199 100.439 199.063 100.521 199.124 100.603C199.107 100.576 199.089 100.549 199.072 100.523C199.319 100.695 199.462 100.979 199.459 101.278C199.457 101.567 199.308 101.807 199.059 101.946C198.757 102.114 198.471 102.034 198.161 101.953H198.628C198.372 101.993 198.191 102.003 197.932 101.946C197.923 101.944 197.683 101.885 197.841 101.918C197.989 101.949 197.59 101.887 197.546 101.881C197.495 101.873 197.216 101.846 197.51 101.875C197.457 101.869 197.402 101.862 197.348 101.855C197.209 101.838 197.069 101.821 196.929 101.81C196.319 101.761 195.711 101.733 195.098 101.714C194.531 101.695 193.953 101.69 193.386 101.714C193.142 101.725 192.9 101.733 192.657 101.74C192.52 101.744 192.578 101.766 192.671 101.736C192.621 101.751 192.57 101.761 192.519 101.775C192.418 101.803 192.32 101.836 192.222 101.873C191.828 102.025 191.355 101.739 191.208 101.375C191.05 100.978 191.184 100.523 191.559 100.299Z" fill="#04377D"/>
<path d="M187.168 126.088C186.32 124.377 184.775 123.121 182.99 122.314C184.54 122.157 191.856 121.477 193.702 122.529C195.77 123.707 193.32 128.437 189.043 128.674C188.594 128.699 188.185 128.663 187.795 128.601C187.761 127.738 187.562 126.883 187.168 126.088Z" fill="#04377D"/>
<path d="M220.968 116.132C220.968 116.132 220.228 119.007 215.974 122.347C211.72 125.686 205.556 128.128 205.556 128.128L205.062 125.964C205.062 125.964 211.443 123.181 214.402 120.12C217.362 117.06 217.731 115.389 217.731 115.389L220.968 116.132Z" fill="#DEE2EC"/>
<path d="M204.322 124.363C200.899 124.203 198.988 126.918 198.75 128.675C198.511 130.433 200.156 132.402 204.004 130.672C208.784 128.523 207.745 124.522 204.322 124.363Z" fill="#04377D"/>
<path d="M218.287 94.8897C218.287 94.8897 216.809 84.228 209.686 76.9864C196.092 63.1657 184.534 63.9997 184.534 63.9997C184.534 63.9997 184.626 62.052 188.973 60.568C193.053 59.1746 194.891 59.9188 194.891 59.9188C194.891 59.9188 206.08 60.846 215.512 71.3283C224.945 81.8106 225.962 95.1676 225.962 95.1676L218.287 94.8897Z" fill="#DEE2EC"/>
<path d="M219.303 93.5905C228.209 92.0769 233.174 99.0639 233.545 106.114C233.915 113.163 228.808 118.523 221.985 117.987C206.635 116.781 208.391 95.4457 219.303 93.5905Z" fill="white"/>
<path d="M223.738 111.135C226.088 111.135 228.076 109.951 229.211 107.863C230.428 105.628 230.326 102.876 228.951 100.853C228.846 100.701 228.638 100.66 228.485 100.764C228.332 100.869 228.292 101.078 228.397 101.232C229.631 103.048 229.72 105.525 228.622 107.542C227.582 109.454 225.744 110.538 223.567 110.46C221.532 110.406 219.808 109.472 218.711 107.831C217.46 105.959 217.172 103.372 217.978 101.243C218.778 99.1306 220.971 97.6905 222.966 97.9524C223.146 97.9766 223.318 97.8474 223.343 97.6636C223.367 97.4798 223.238 97.3103 223.055 97.2861C220.722 96.9741 218.271 98.5729 217.351 101.004C216.47 103.331 216.786 106.158 218.154 108.205C219.375 110.033 221.291 111.072 223.549 111.133C223.612 111.135 223.675 111.135 223.738 111.135Z" fill="#7C90B6"/>
<path d="M230.215 140.249C230.215 140.249 257.217 146.928 266.649 157.688C276.082 168.448 280.52 221.508 280.705 231.34C280.89 241.173 274.047 245.255 269.978 248.038C265.91 250.821 247.97 255.829 233.544 256.572C219.118 257.314 205.431 256.572 205.431 256.572C205.431 256.572 205.477 253.418 203.258 248.779C201.2 244.478 198.589 243.585 198.589 243.585L210.979 239.133C210.979 239.133 213.15 200.132 216.528 181.25C220.412 159.543 230.215 140.249 230.215 140.249Z" fill="#04377D"/>
<path d="M185.459 232.902C185.519 232.902 185.581 232.889 185.639 232.863C185.865 232.763 185.967 232.498 185.867 232.272C183.337 226.546 180.715 215.305 179.239 207.419L179.118 206.781C178.671 204.461 178.115 201.576 179.224 199.585C179.79 198.569 181.068 196.365 182.298 194.246C183.573 192.046 184.777 189.968 185.112 189.349C185.763 188.137 183.713 184.902 180.744 180.464C179.942 179.264 179.249 178.229 178.845 177.528C177.787 175.691 178.491 174.009 179.307 172.06L179.585 171.39C180.324 169.569 181.164 167.746 181.976 165.982C182.308 165.261 182.641 164.54 182.968 163.814C183.402 162.856 183.838 161.88 184.279 160.893C186.892 155.049 189.596 149.006 193.056 143.168C193.183 142.956 193.112 142.68 192.9 142.554C192.689 142.428 192.414 142.497 192.288 142.71C188.801 148.592 186.088 154.659 183.464 160.526C183.023 161.513 182.587 162.486 182.155 163.445C181.827 164.168 181.496 164.887 181.165 165.606C180.348 167.379 179.504 169.213 178.757 171.052L178.482 171.714C177.651 173.7 176.791 175.755 178.071 177.976C178.49 178.704 179.19 179.751 180.002 180.963C181.549 183.277 184.77 188.094 184.325 188.922C183.998 189.53 182.796 191.601 181.525 193.795C180.293 195.919 179.012 198.129 178.444 199.147C177.175 201.424 177.766 204.488 178.24 206.951L178.362 207.584C178.899 210.456 181.748 225.16 185.05 232.634C185.124 232.803 185.288 232.902 185.459 232.902Z" fill="#8094B9"/>
<path d="M211.813 234.479C211.928 234.479 212.043 234.435 212.131 234.347C214.232 232.222 224.367 214.619 225.121 211.308C225.535 209.496 224.497 204.9 223.495 200.454C222.718 197.01 221.915 193.448 222.143 192.484C222.485 191.043 225.076 188.919 227.582 186.866C230.61 184.385 233.74 181.819 234.347 179.508C235.037 176.882 234.447 160.439 234.057 149.56C233.917 145.647 233.807 142.558 233.808 141.455C233.808 141.208 233.607 141.007 233.361 141.007C233.114 141.007 232.914 141.207 232.914 141.455C232.913 142.574 233.024 145.671 233.164 149.592C233.529 159.761 234.138 176.78 233.483 179.28C232.95 181.309 229.798 183.892 227.016 186.172C224.275 188.419 221.685 190.541 221.274 192.278C220.997 193.443 221.75 196.784 222.623 200.651C223.558 204.797 224.618 209.494 224.251 211.109C223.51 214.354 213.56 231.628 211.496 233.714C211.323 233.891 211.324 234.174 211.499 234.348C211.585 234.435 211.7 234.479 211.813 234.479Z" fill="#8094B9"/>
<path d="M248.155 226.78C248.175 226.78 248.197 226.778 248.217 226.775C248.462 226.74 248.632 226.514 248.598 226.269C248.269 223.936 243.139 177.488 242.903 173.931C242.887 173.682 242.674 173.489 242.427 173.513C242.182 173.529 241.995 173.743 242.011 173.99C242.248 177.553 247.384 224.059 247.712 226.394C247.745 226.618 247.936 226.78 248.155 226.78Z" fill="#8094B9"/>
<path d="M211.352 239.395C211.407 239.395 211.464 239.384 211.52 239.362C212.656 238.9 217.68 237.201 224.038 235.049C236.874 230.708 254.452 224.762 257.795 223.019C258.014 222.905 258.099 222.635 257.986 222.414C257.872 222.194 257.603 222.107 257.383 222.224C254.102 223.934 235.838 230.111 223.753 234.199C217.379 236.356 212.345 238.059 211.184 238.53C210.955 238.624 210.845 238.885 210.938 239.115C211.007 239.289 211.176 239.395 211.352 239.395Z" fill="#8094B9"/>
<path d="M217.523 257.89C228.819 257.89 250.719 255.847 267.355 249.945C267.587 249.862 267.709 249.606 267.626 249.372C267.545 249.139 267.287 249.016 267.057 249.099C246.041 256.556 216.641 257.83 211.171 256.598C210.93 256.546 210.691 256.696 210.637 256.938C210.583 257.179 210.734 257.419 210.976 257.473C212.159 257.739 214.449 257.89 217.523 257.89Z" fill="#8094B9"/>
<path d="M346.816 146.505C343.309 149.6 338.867 151.583 335.79 155.16C334.579 156.569 333.492 158.066 332.367 159.542C331.549 160.616 329.365 162.399 329.011 163.749C328.855 164.344 328.888 163.538 329.044 162.942C329.051 162.916 329.064 162.892 329.071 162.867C329.378 160.133 329.599 157.388 329.694 154.638C329.789 151.896 329.619 149.142 329.791 146.403C330.032 142.54 331.234 138.798 334.383 136.378C335.921 135.195 337.899 134.474 339.314 133.162C340.656 131.915 340.117 130.488 339.328 129.098C338.59 127.798 337.694 126.519 337.406 125.021C337.079 123.32 337.716 121.565 338.577 120.115C340.409 117.031 344.471 113.591 348.317 114.053C351.526 114.438 351.889 118.149 351.843 120.736C351.798 123.25 351.551 125.757 351.526 128.273C351.501 130.857 351.939 133.392 351.976 135.966C352.039 140.341 350.023 143.676 346.816 146.505Z" fill="#35B0FF"/>
<path d="M314.232 186.661C313.256 184.326 312.135 182.142 310.758 180.017C308.868 177.103 306.772 174.263 305.503 170.999C304.207 167.667 304.398 164.104 304.27 160.595C304.176 158.016 303.413 155.444 303.618 152.859C303.717 151.619 304.43 149.613 306.029 149.819C307.273 149.978 308.013 151.526 308.491 152.513C309.326 154.237 309.904 156.076 310.525 157.883C310.766 158.59 310.997 159.31 311.303 159.992C311.48 160.39 312.047 161.358 312.581 161.226C313.489 161.001 312.665 157.279 312.53 156.62C311.85 153.31 310.829 150.233 310.687 146.826C310.482 141.887 310.864 136.008 315.68 133.308C316.939 132.601 318.533 132.181 319.729 133.237C320.91 134.279 321.244 136.084 321.419 137.57C321.956 142.131 320.886 146.451 319.429 150.742C318.226 154.286 316.792 157.943 316.687 161.732C316.586 165.381 318.478 168.612 319.366 172.058C320.781 177.55 320.489 180.461 320.495 182.239C320.505 184.468 320.424 186.672 320.262 188.893C320.112 190.935 319.936 192.977 319.687 195.01C319.636 195.422 319.59 195.85 319.535 196.281C320.318 194.39 320.591 192.227 321.238 190.328C322.39 186.953 323.727 183.649 324.831 180.257C325.744 177.455 326.606 174.634 327.811 171.94C328.942 169.413 330.307 166.741 332.416 164.887C333.691 163.766 335.235 163.11 336.94 163.124C338.031 163.132 339.01 163.511 340.051 163.786C341.333 164.126 342.341 164.009 343.395 163.196C346.846 160.535 347.896 155.764 350.452 152.394C352.357 149.881 356.879 145.597 360.203 148.337C361.967 149.791 362.453 152.601 362.361 154.754C362.245 157.457 361.068 159.928 359.666 162.187C358.175 164.589 356.25 166.74 354.88 169.21C354.069 170.669 353.943 172.068 354.072 173.714C354.193 175.264 354.328 176.766 353.801 178.262C352.219 182.754 347.278 182.126 343.435 182.244C340.747 182.325 337.863 182.727 335.31 183.59C332.36 184.587 330.44 186.512 329.385 189.44C328.623 191.558 328.214 193.964 326.777 195.762C326.1 196.609 325.206 197.234 324.222 197.67C322.724 198.335 318.155 198.624 318.121 198.206C318.009 196.805 317.345 195.326 316.931 193.997C316.153 191.502 315.239 189.07 314.232 186.661Z" fill="#35B0FF"/>
<path d="M293.019 185.815C293.415 183.247 293.339 180.416 294.552 178.059C294.638 177.889 294.868 177.846 295.025 177.934C295.893 178.417 295.929 179.824 296 180.687C296.118 182.119 296.03 183.554 296.205 184.98C296.514 187.487 297.091 190.072 297.991 192.435C299.011 195.108 300.863 196.625 303.554 197.459C305.283 197.995 306.979 198.462 308.422 199.612C309.714 200.643 310.612 202.064 311.277 203.561C313.074 207.603 313.929 212.12 314.762 216.437C315.323 219.345 315.78 222.265 316.484 225.143C317.188 228.019 317.942 230.881 318.346 233.818C318.414 233.966 318.486 234.113 318.549 234.263C318.733 234.703 318.048 234.94 317.812 234.575C315.034 230.286 311.651 226.437 307.034 224.075C304.95 223.009 302.18 222.786 300.442 221.11C299.119 219.835 298.937 217.89 299.135 216.156C299.394 213.878 300.483 212.002 301.617 210.061C302.239 208.994 302.975 207.851 302.724 206.555C302.487 205.332 301.473 204.434 300.468 203.806C298.548 202.611 296.305 202.074 294.733 200.351C293.273 198.752 292.464 196.76 292.303 194.605C292.087 191.732 292.581 188.651 293.019 185.815Z" fill="#35B0FF"/>
<path d="M330.89 200.622C333.341 197.455 336.299 194.723 339.627 192.506C341.404 191.323 345.593 188.988 346.439 192.479C346.935 194.524 344.939 196.536 343.626 197.819C341.652 199.745 339.369 201.408 337.704 203.629C339.766 204.288 341.92 204.416 343.712 205.847C345.833 207.541 346.784 210.81 344.682 212.884C343.656 213.894 342.298 214.515 341.021 215.135C339.362 215.941 337.672 216.671 335.972 217.383C332.3 218.922 328.581 220.482 325.45 223.004C322.258 225.572 319.258 229.915 319.005 234.105C318.98 234.505 319.131 234.141 318.894 233.958C318.763 234.075 318.325 233.865 318.328 233.631C318.393 227.413 319.507 221.492 322.04 215.797C324.389 210.517 327.35 205.197 330.89 200.622Z" fill="#35B0FF"/>
<path d="M339.355 142.737C338.003 145.552 336.59 148.302 335.089 151.048C333.643 153.69 332.201 156.312 331.12 159.131C329.789 162.602 328.393 166.022 326.986 169.463C325.524 173.039 324.216 176.682 323.168 180.403C321.121 187.665 319.601 195.139 318.849 202.649C318.466 206.469 318.293 210.312 318.397 214.149C318.479 217.148 318.816 220.115 319.097 223.098C319.39 226.203 319.6 229.344 319.341 232.459C319.125 235.063 318.712 238.158 316.697 240.015C316.303 240.38 315.745 239.926 315.974 239.456C318.367 234.531 318.234 229.163 317.775 223.823C317.523 220.875 317.173 217.941 317.074 214.982C316.948 211.217 317.095 207.445 317.448 203.695C318.143 196.324 319.608 189.04 321.508 181.892C322.483 178.226 323.689 174.632 325.079 171.104C326.471 167.567 328.08 164.129 329.429 160.575C331.871 154.149 335.591 148.451 338.885 142.461C339.057 142.15 339.506 142.424 339.355 142.737Z" fill="#365691"/>
<path d="M318.738 195.287C318.351 190.607 317.938 186.101 316.365 181.636C315.632 179.554 314.743 177.529 314.035 175.439C313.45 173.711 312.575 171.342 313.025 169.506C313.076 169.301 313.374 169.311 313.429 169.506C313.731 170.555 313.698 171.705 313.915 172.78C314.126 173.827 314.407 174.856 314.732 175.873C315.422 178.036 316.324 180.108 317.105 182.237C318.615 186.349 319.39 190.904 319.059 195.287C319.044 195.494 318.756 195.494 318.738 195.287Z" fill="#365691"/>
<path d="M345.774 168.392C343.922 172.88 338.355 173.139 334.3 174.144C331.404 174.861 329.267 176.799 327.732 179.315C326.052 182.066 324.915 185.298 323.981 188.368C323.97 188.403 323.919 188.39 323.927 188.354C325.062 182.976 326.686 176.498 332.214 173.995C336.644 171.99 342.481 172.997 345.314 168.197C345.454 167.962 345.885 168.12 345.774 168.392Z" fill="#365691"/>
<path d="M321.665 194.577C321.446 194.876 321.243 195.188 321.016 195.48C320.903 195.625 320.789 195.761 320.647 195.878C320.502 195.997 320.331 196.145 320.131 196.142C320.048 196.14 319.99 196.048 320.035 195.973C320.127 195.823 320.292 195.733 320.421 195.619C320.553 195.501 320.689 195.386 320.818 195.265C321.076 195.019 321.313 194.752 321.567 194.501C321.615 194.452 321.709 194.519 321.665 194.577Z" fill="#365691"/>
<path d="M333.247 208.814C330.053 211.445 327.105 214.556 324.763 217.966C323.644 219.596 322.612 221.322 321.674 223.064C320.65 224.966 319.979 226.976 319.177 228.971C319.117 229.123 318.841 229.126 318.862 228.929C319.305 224.709 321.971 221.09 324.105 217.579C325.213 215.755 326.591 214.285 328.074 212.764C329.605 211.193 331.164 209.707 332.959 208.44C333.177 208.285 333.455 208.641 333.247 208.814Z" fill="#365691"/>
<path d="M307.809 203.845C309.349 204.72 309.398 207.157 309.428 208.714C309.486 211.705 308.748 214.513 310.057 217.363C311.238 219.937 313.126 222.086 314.611 224.477C316.001 226.714 317.372 229.575 317.341 232.268C317.34 232.423 317.101 232.512 317.028 232.353C316.469 231.13 316.268 229.741 315.867 228.46C315.417 227.019 314.786 225.711 313.972 224.444C312.544 222.224 310.79 220.202 309.631 217.815C308.41 215.298 308.589 212.805 308.669 210.078C308.721 208.339 308.895 205.545 307.497 204.252C307.278 204.05 307.557 203.702 307.809 203.845Z" fill="#365691"/>
<path d="M318.098 232.546C324.295 232.46 336.101 232.392 336.101 232.392L333.179 254.147C332.522 259.041 328.357 262.694 323.434 262.694H318.344H317.852H312.762C307.838 262.694 303.674 259.041 303.017 254.147L300.096 232.392C300.096 232.392 311.9 232.46 318.098 232.546Z" fill="white"/>
<path d="M18.5409 192.566L53.8982 262.817L156.976 263.56L125.164 191.577L18.5409 192.566Z" fill="#F6F7FA"/>
<path d="M225.387 263.122L225.367 257.499H158.639L127.937 189.969H21.2218L18.5392 192.566H122.79L154.694 263.065C154.694 263.065 225.387 262.937 225.387 263.122Z" fill="#D9DFE9"/>
<path d="M72.0669 231.332C73.2317 234.837 79.5518 237.543 86.1838 237.376C92.8158 237.21 97.2479 234.234 96.084 230.73C94.9192 227.227 88.5991 224.52 81.9671 224.687C75.3351 224.853 70.9022 227.829 72.0669 231.332Z" fill="#D9DFE9"/>
<path d="M154.694 263.513C154.756 263.513 154.819 263.5 154.879 263.473C155.103 263.371 155.202 263.105 155.101 262.879L123.078 192.118H18.5395C18.2928 192.118 18.0925 192.319 18.0925 192.566C18.0925 192.814 18.2928 193.015 18.5395 193.015H122.502L154.287 263.251C154.361 263.416 154.525 263.513 154.694 263.513Z" fill="white"/>
<path d="M230.03 295.716H352.651V268.445H230.03V295.716Z" fill="#4F6B9E"/>
<path d="M10.1122 295.716H230.732V268.445H10.1122V295.716Z" fill="#748AB2"/>
<mask id="mask4_59_3" style="mask-type:luminance" maskUnits="userSpaceOnUse" x="10" y="268" width="343" height="6">
<path d="M352.653 268.445H10.1136V273.454H352.653V268.445Z" fill="white"/>
</mask>
<g mask="url(#mask4_59_3)">
<path d="M230.032 268.445H230.733H352.653V273.454H230.733H230.032H10.1127V268.445H230.032Z" fill="#BCC5D9"/>
</g>
<path d="M224.668 269.744H358.571V263.065H224.668V269.744Z" fill="#6880AC"/>
<path d="M4.74786 269.744H225.367V263.065H4.74786V269.744Z" fill="#99A8C5"/>
<path d="M260.989 119.98H304.277C306.955 119.98 309.127 117.802 309.127 115.114V93.4369C309.127 90.7505 306.955 88.5715 304.277 88.5715H260.989C258.31 88.5715 256.139 90.7505 256.139 93.4369V115.114C256.139 117.802 258.31 119.98 260.989 119.98Z" fill="white"/>
<path d="M243.803 104.276L260.061 97.3948V111.157L243.803 104.276Z" fill="white"/>
<path d="M289.907 104.276C289.907 105.935 291.248 107.28 292.902 107.28C294.556 107.28 295.896 105.935 295.896 104.276C295.896 102.616 294.556 101.272 292.902 101.272C291.248 101.272 289.907 102.616 289.907 104.276Z" fill="#04377D"/>
<path d="M279.639 104.276C279.639 105.935 280.98 107.28 282.633 107.28C284.287 107.28 285.628 105.935 285.628 104.276C285.628 102.616 284.287 101.272 282.633 101.272C280.98 101.272 279.639 102.616 279.639 104.276Z" fill="#04377D"/>
<path d="M269.369 104.276C269.369 105.935 270.71 107.28 272.364 107.28C274.018 107.28 275.358 105.935 275.358 104.276C275.358 102.616 274.018 101.272 272.364 101.272C270.71 101.272 269.369 102.616 269.369 104.276Z" fill="#04377D"/>
<path d="M40.6116 21.8865H140.546C146.964 21.8865 152.167 27.1053 152.167 33.5435V81.0993C152.167 87.5367 146.964 92.7563 140.546 92.7563H131.588C131.337 97.0667 131.953 103.48 135.541 111.679C123.995 106.337 117.347 98.3149 113.874 92.7563H40.6116C34.1933 92.7563 28.9906 87.5367 28.9906 81.0993V33.5435C28.9906 27.1053 34.1933 21.8865 40.6116 21.8865Z" fill="#0DAAFF"/>
<path d="M83.2418 44.5511H132.808C134.17 44.5511 135.274 43.4437 135.274 42.0781C135.274 40.7115 134.17 39.6041 132.808 39.6041H83.2418C81.8804 39.6041 80.7755 40.7115 80.7755 42.0781C80.7755 43.4437 81.8804 44.5511 83.2418 44.5511Z" fill="white"/>
<path d="M47.7003 58.9603H133.764C134.598 58.9603 135.274 58.2824 135.274 57.4458C135.274 56.6083 134.598 55.9304 133.764 55.9304H47.7003C46.8663 55.9304 46.1905 56.6083 46.1905 57.4458C46.1905 58.2824 46.8663 58.9603 47.7003 58.9603Z" fill="#CBE7FF"/>
<path d="M47.7003 67.3707H133.764C134.598 67.3707 135.274 66.6928 135.274 65.8553C135.274 65.0187 134.598 64.3408 133.764 64.3408H47.7003C46.8663 64.3408 46.1905 65.0187 46.1905 65.8553C46.1905 66.6928 46.8663 67.3707 47.7003 67.3707Z" fill="#CBE7FF"/>
<path d="M66.4745 76.3375H133.764C134.598 76.3375 135.274 75.6587 135.274 74.8221C135.274 73.9855 134.598 73.3076 133.764 73.3076H66.4745C65.6396 73.3076 64.9638 73.9855 64.9638 74.8221C64.9638 75.6587 65.6396 76.3375 66.4745 76.3375Z" fill="#CBE7FF"/>
<path d="M48.3768 44.5511H72.0219C73.3843 44.5511 74.4883 43.4437 74.4883 42.0781C74.4883 40.7115 73.3843 39.6041 72.0219 39.6041H48.3768C47.0153 39.6041 45.9114 40.7115 45.9114 42.0781C45.9114 43.4437 47.0153 44.5511 48.3768 44.5511Z" fill="white"/>
<path d="M107.972 153.916H134.821C135.808 153.916 136.608 153.113 136.608 152.123V133.725C136.608 132.735 135.808 131.931 134.821 131.931H107.972C106.986 131.931 106.185 132.735 106.185 133.725V152.123C106.185 153.113 106.986 153.916 107.972 153.916Z" fill="white"/>
<path d="M121.21 146.209C121.361 146.209 121.513 146.158 121.637 146.055L136.249 133.95C136.535 133.713 136.574 133.289 136.339 133.003C136.101 132.716 135.679 132.677 135.395 132.912L121.222 144.655L107.41 132.599C107.131 132.356 106.706 132.385 106.464 132.666C106.22 132.945 106.25 133.37 106.529 133.614L120.77 146.044C120.895 146.154 121.053 146.209 121.21 146.209Z" fill="#6880AC"/>
<path d="M135.822 153.414C135.988 153.414 136.154 153.353 136.284 153.229C136.552 152.973 136.563 152.547 136.307 152.278L126.088 141.502C125.835 141.233 125.408 141.221 125.141 141.478C124.872 141.734 124.861 142.16 125.117 142.429L135.336 153.205C135.468 153.344 135.645 153.414 135.822 153.414Z" fill="#6880AC"/>
<path d="M106.97 153.02C107.142 153.02 107.314 152.955 107.445 152.823L117.623 142.585C117.884 142.322 117.884 141.896 117.621 141.634C117.358 141.371 116.934 141.372 116.673 141.635L106.495 151.872C106.234 152.136 106.234 152.562 106.497 152.824C106.628 152.955 106.799 153.02 106.97 153.02Z" fill="#6880AC"/>
<path d="M95.8195 131.251C95.8195 136.221 99.835 140.25 104.789 140.25C109.743 140.25 113.759 136.221 113.759 131.251C113.759 126.282 109.743 122.254 104.789 122.254C99.835 122.254 95.8195 126.282 95.8195 131.251Z" fill="#FF5F3E"/>
<path d="M104.918 134.609L104.95 134.241C104.544 134.422 104.192 134.657 103.894 134.945C103.595 135.233 103.366 135.547 103.206 135.889C103.046 136.23 102.966 136.582 102.966 136.945C102.966 137.553 103.136 138.113 103.478 138.625C103.808 139.126 104.256 139.531 104.822 139.841C105.387 140.139 106.016 140.289 106.71 140.289C107.403 140.289 108.032 140.139 108.598 139.841C109.163 139.531 109.616 139.126 109.958 138.625C110.288 138.113 110.454 137.553 110.454 136.945C110.454 136.454 110.352 136.033 110.15 135.681C109.936 135.318 109.675 135.014 109.366 134.769C109.046 134.523 108.731 134.321 108.422 134.161L108.55 134.609C108.816 134.502 109.078 134.353 109.334 134.161C109.579 133.958 109.782 133.702 109.942 133.393C110.102 133.083 110.182 132.721 110.182 132.305C110.182 131.707 110.027 131.169 109.718 130.689C109.408 130.198 108.992 129.809 108.47 129.521C107.936 129.233 107.35 129.089 106.71 129.089C106.059 129.089 105.478 129.233 104.966 129.521C104.443 129.809 104.027 130.198 103.718 130.689C103.408 131.169 103.254 131.707 103.254 132.305C103.254 132.763 103.344 133.147 103.526 133.457C103.707 133.766 103.926 134.011 104.182 134.193C104.438 134.374 104.683 134.513 104.918 134.609ZM108.262 132.337C108.262 132.625 108.198 132.881 108.07 133.105C107.931 133.329 107.744 133.51 107.51 133.649C107.275 133.777 107.008 133.841 106.71 133.841C106.411 133.841 106.15 133.777 105.926 133.649C105.691 133.51 105.51 133.329 105.382 133.105C105.243 132.881 105.174 132.625 105.174 132.337C105.174 131.91 105.323 131.558 105.622 131.281C105.91 130.993 106.272 130.849 106.71 130.849C107.158 130.849 107.531 130.993 107.83 131.281C108.118 131.558 108.262 131.91 108.262 132.337ZM106.71 138.529C106.198 138.529 105.766 138.374 105.414 138.065C105.062 137.745 104.886 137.361 104.886 136.913C104.886 136.603 104.966 136.326 105.126 136.081C105.286 135.835 105.504 135.643 105.782 135.505C106.059 135.355 106.368 135.281 106.71 135.281C107.051 135.281 107.36 135.355 107.638 135.505C107.915 135.643 108.134 135.835 108.294 136.081C108.454 136.326 108.534 136.603 108.534 136.913C108.534 137.361 108.358 137.745 108.006 138.065C107.654 138.374 107.222 138.529 106.71 138.529ZM107.238 160.449C107.632 160.449 108.054 160.39 108.502 160.273C108.95 160.145 109.318 159.963 109.606 159.729C109.744 159.611 109.856 159.462 109.942 159.281C110.016 159.089 110.054 158.907 110.054 158.737C110.054 158.555 109.979 158.385 109.83 158.225C109.67 158.065 109.446 157.985 109.158 157.985C108.966 157.985 108.726 158.086 108.438 158.289C108.267 158.395 108.08 158.491 107.878 158.577C107.675 158.662 107.467 158.705 107.254 158.705C106.742 158.705 106.299 158.614 105.926 158.433C105.552 158.241 105.264 157.979 105.062 157.649C104.859 157.318 104.758 156.929 104.758 156.481C104.758 156.075 104.854 155.729 105.046 155.441C105.227 155.153 105.472 154.929 105.782 154.769C106.08 154.609 106.406 154.529 106.758 154.529C107.088 154.529 107.376 154.582 107.622 154.689C107.867 154.795 108.091 154.907 108.294 155.025C108.496 155.131 108.699 155.185 108.902 155.185C109.254 155.185 109.515 155.11 109.686 154.961C109.856 154.801 109.963 154.614 110.006 154.401C110.048 154.187 110.059 153.995 110.038 153.825L109.542 149.937C109.499 149.713 109.392 149.531 109.222 149.393C109.04 149.243 108.827 149.169 108.582 149.169H103.958C103.702 149.169 103.488 149.254 103.318 149.425C103.147 149.595 103.062 149.809 103.062 150.065C103.062 150.31 103.147 150.518 103.318 150.689C103.488 150.849 103.702 150.929 103.958 150.929H108.086L107.91 150.785L108.342 154.033L108.55 153.425C108.486 153.318 108.347 153.217 108.134 153.121C107.92 153.025 107.675 152.945 107.398 152.881C107.12 152.806 106.848 152.769 106.582 152.769C105.867 152.769 105.227 152.934 104.662 153.265C104.096 153.585 103.654 154.027 103.334 154.593C103.003 155.147 102.838 155.777 102.838 156.481C102.838 157.281 103.019 157.979 103.382 158.577C103.744 159.174 104.256 159.638 104.918 159.969C105.568 160.289 106.342 160.449 107.238 160.449Z" fill="white"/>
<path d="M14.6945 127.94H67.0972C69.0718 127.94 70.6729 126.334 70.6729 124.353V116.129C70.6729 114.148 69.0718 112.542 67.0972 112.542H14.6945C12.7198 112.542 11.1188 114.148 11.1188 116.129V124.353C11.1188 126.334 12.7198 127.94 14.6945 127.94Z" fill="#04377D"/>
<path d="M63.3137 124.278C63.5497 124.278 63.7383 124.195 63.8804 124.026C64.0234 123.859 64.086 123.648 64.069 123.396L63.8429 121.402C63.8259 121.352 63.8339 121.318 63.867 121.301C63.9019 121.284 63.943 121.292 63.9939 121.327L65.6289 122.512C65.8301 122.663 66.0401 122.719 66.2583 122.676C66.4755 122.635 66.6516 122.504 66.7866 122.285C66.9376 122.016 66.9662 121.78 66.8742 121.578C66.783 121.377 66.6266 121.234 66.4093 121.15L64.5723 120.317C64.5223 120.3 64.4963 120.275 64.4963 120.242C64.4963 120.207 64.5223 120.182 64.5723 120.165L66.4093 119.332C66.6444 119.232 66.7955 119.072 66.8617 118.853C66.9287 118.635 66.9037 118.416 66.7866 118.197C66.6516 117.978 66.4755 117.848 66.2583 117.805C66.0401 117.764 65.8301 117.811 65.6289 117.945L63.9939 119.157C63.943 119.19 63.9019 119.198 63.867 119.181C63.8339 119.165 63.8259 119.131 63.8429 119.08L64.069 117.086C64.086 116.834 64.019 116.623 63.867 116.456C63.7159 116.287 63.5157 116.204 63.2636 116.204C63.0294 116.204 62.8363 116.287 62.6852 116.456C62.5342 116.623 62.4761 116.834 62.51 117.086L62.7362 119.08C62.7523 119.131 62.7442 119.165 62.7103 119.181C62.6772 119.198 62.6343 119.19 62.5842 119.157L60.9484 117.97C60.7481 117.818 60.5345 117.764 60.3074 117.805C60.0812 117.848 59.9096 117.978 59.7925 118.197C59.6414 118.466 59.611 118.702 59.7049 118.904C59.7961 119.105 59.9516 119.249 60.1697 119.332L62.0059 120.165C62.0559 120.182 62.081 120.207 62.081 120.242C62.081 120.275 62.0559 120.3 62.0059 120.317L60.1697 121.15C59.9346 121.25 59.7791 121.411 59.7049 121.629C59.6289 121.848 59.6575 122.067 59.7925 122.285C59.9096 122.504 60.0812 122.635 60.3074 122.676C60.5345 122.719 60.7481 122.672 60.9484 122.538L62.5842 121.327C62.6343 121.292 62.6772 121.284 62.7103 121.301C62.7442 121.318 62.7523 121.352 62.7362 121.402L62.51 123.396C62.4761 123.648 62.5386 123.859 62.6978 124.026C62.8578 124.195 63.0634 124.278 63.3137 124.278Z" fill="white"/>
<path d="M52.4767 124.278C52.7118 124.278 52.9004 124.195 53.0425 124.026C53.1856 123.859 53.2481 123.648 53.232 123.396L53.005 121.402C52.988 121.352 52.9969 121.318 53.03 121.301C53.064 121.284 53.1051 121.292 53.1561 121.327L54.791 122.512C54.9922 122.663 55.2022 122.719 55.4204 122.676C55.6376 122.635 55.8137 122.504 55.9487 122.285C56.0997 122.016 56.1284 121.78 56.0363 121.578C55.9451 121.377 55.7896 121.234 55.5714 121.15L53.7344 120.317C53.6844 120.3 53.6584 120.275 53.6584 120.242C53.6584 120.207 53.6844 120.182 53.7344 120.165L55.5714 119.332C55.8065 119.232 55.9576 119.072 56.0247 118.853C56.0908 118.635 56.0658 118.416 55.9487 118.197C55.8137 117.978 55.6376 117.848 55.4204 117.805C55.2022 117.764 54.9922 117.811 54.791 117.945L53.1561 119.157C53.1051 119.19 53.064 119.198 53.03 119.181C52.9969 119.165 52.988 119.131 53.005 119.08L53.232 117.086C53.2481 116.834 53.1811 116.623 53.03 116.456C52.8789 116.287 52.6787 116.204 52.4257 116.204C52.1915 116.204 51.9984 116.287 51.8474 116.456C51.6963 116.623 51.6382 116.834 51.6721 117.086L51.8983 119.08C51.9153 119.131 51.9064 119.165 51.8724 119.181C51.8393 119.198 51.7964 119.19 51.7472 119.157L50.1114 117.97C49.9111 117.818 49.6966 117.764 49.4704 117.805C49.2443 117.848 49.0717 117.978 48.9546 118.197C48.8044 118.466 48.774 118.702 48.867 118.904C48.9582 119.105 49.1137 119.249 49.3319 119.332L51.168 120.165C51.2189 120.182 51.2431 120.207 51.2431 120.242C51.2431 120.275 51.2189 120.3 51.168 120.317L49.3319 121.15C49.0976 121.25 48.9412 121.411 48.867 121.629C48.791 121.848 48.8196 122.067 48.9546 122.285C49.0717 122.504 49.2443 122.635 49.4704 122.676C49.6966 122.719 49.9111 122.672 50.1114 122.538L51.7472 121.327C51.7964 121.292 51.8393 121.284 51.8724 121.301C51.9064 121.318 51.9153 121.352 51.8983 121.402L51.6721 123.396C51.6382 123.648 51.7008 123.859 51.8608 124.026C52.0199 124.195 52.2255 124.278 52.4767 124.278Z" fill="white"/>
<path d="M41.6372 124.278C41.8723 124.278 42.0618 124.195 42.2039 124.026C42.347 123.859 42.4095 123.648 42.3925 123.396L42.1655 121.402C42.1494 121.352 42.1574 121.318 42.1905 121.301C42.2245 121.284 42.2665 121.292 42.3166 121.327L43.9524 122.512C44.1536 122.663 44.3636 122.719 44.5809 122.676C44.799 122.635 44.9751 122.504 45.1092 122.285C45.2611 122.016 45.2897 121.78 45.1968 121.578C45.1056 121.377 44.9501 121.234 44.7319 121.15L42.8949 120.317C42.8458 120.3 42.8198 120.275 42.8198 120.242C42.8198 120.207 42.8458 120.182 42.8949 120.165L44.7319 119.332C44.967 119.232 45.119 119.072 45.1852 118.853C45.2513 118.635 45.2263 118.416 45.1092 118.197C44.9751 117.978 44.799 117.848 44.5809 117.805C44.3636 117.764 44.1536 117.811 43.9524 117.945L42.3166 119.157C42.2665 119.19 42.2245 119.198 42.1905 119.181C42.1574 119.165 42.1494 119.131 42.1655 119.08L42.3925 117.086C42.4095 116.834 42.3416 116.623 42.1905 116.456C42.0394 116.287 41.8392 116.204 41.5862 116.204C41.352 116.204 41.1598 116.287 41.0087 116.456C40.8568 116.623 40.7987 116.834 40.8335 117.086L41.0588 119.08C41.0758 119.131 41.0677 119.165 41.0329 119.181C40.9998 119.198 40.9578 119.19 40.9077 119.157L39.2719 117.97C39.0716 117.818 38.858 117.764 38.6309 117.805C38.4048 117.848 38.2322 117.978 38.1151 118.197C37.9649 118.466 37.9345 118.702 38.0275 118.904C38.1187 119.105 38.2751 119.249 38.4924 119.332L40.3285 120.165C40.3794 120.182 40.4045 120.207 40.4045 120.242C40.4045 120.275 40.3794 120.3 40.3285 120.317L38.4924 121.15C38.2581 121.25 38.1026 121.411 38.0275 121.629C37.9524 121.848 37.981 122.067 38.1151 122.285C38.2322 122.504 38.4048 122.635 38.6309 122.676C38.858 122.719 39.0716 122.672 39.2719 122.538L40.9077 121.327C40.9578 121.292 40.9998 121.284 41.0329 121.301C41.0677 121.318 41.0758 121.352 41.0588 121.402L40.8335 123.396C40.7987 123.648 40.8621 123.859 41.0213 124.026C41.1804 124.195 41.3869 124.278 41.6372 124.278Z" fill="white"/>
<path d="M30.7999 124.278C31.035 124.278 31.2236 124.195 31.3658 124.026C31.5088 123.859 31.5714 123.648 31.5544 123.396L31.3282 121.402C31.3112 121.352 31.3193 121.318 31.3533 121.301C31.3872 121.284 31.4283 121.292 31.4793 121.327L33.1143 122.512C33.3154 122.663 33.5255 122.719 33.7436 122.676C33.9608 122.635 34.1369 122.504 34.2719 122.285C34.423 122.016 34.4516 121.78 34.3595 121.578C34.2683 121.377 34.1119 121.234 33.8947 121.15L32.0577 120.317C32.0076 120.3 31.9817 120.275 31.9817 120.242C31.9817 120.207 32.0076 120.182 32.0577 120.165L33.8947 119.332C34.1298 119.232 34.2809 119.072 34.347 118.853C34.4141 118.635 34.389 118.416 34.2719 118.197C34.1369 117.978 33.9608 117.848 33.7436 117.805C33.5255 117.764 33.3154 117.811 33.1143 117.945L31.4793 119.157C31.4283 119.19 31.3872 119.198 31.3533 119.181C31.3193 119.165 31.3112 119.131 31.3282 119.08L31.5544 117.086C31.5714 116.834 31.5043 116.623 31.3533 116.456C31.2013 116.287 31.0011 116.204 30.749 116.204C30.5148 116.204 30.3217 116.287 30.1706 116.456C30.0195 116.623 29.9614 116.834 29.9954 117.086L30.2216 119.08C30.2376 119.131 30.2296 119.165 30.1956 119.181C30.1626 119.198 30.1196 119.19 30.0696 119.157L28.4346 117.97C28.2335 117.818 28.0198 117.764 27.7928 117.805C27.5675 117.848 27.395 117.978 27.2779 118.197C27.1268 118.466 27.0964 118.702 27.1903 118.904C27.2814 119.105 27.437 119.249 27.6551 119.332L29.4912 120.165C29.5413 120.182 29.5663 120.207 29.5663 120.242C29.5663 120.275 29.5413 120.3 29.4912 120.317L27.6551 121.15C27.42 121.25 27.2645 121.411 27.1903 121.629C27.1143 121.848 27.1429 122.067 27.2779 122.285C27.395 122.504 27.5675 122.635 27.7928 122.676C28.0198 122.719 28.2335 122.672 28.4346 122.538L30.0696 121.327C30.1196 121.292 30.1626 121.284 30.1956 121.301C30.2296 121.318 30.2376 121.352 30.2216 121.402L29.9954 123.396C29.9614 123.648 30.024 123.859 30.1831 124.026C30.3431 124.195 30.5487 124.278 30.7999 124.278Z" fill="white"/>
<path d="M19.9611 124.278C20.1962 124.278 20.3848 124.195 20.5269 124.026C20.6699 123.859 20.7325 123.648 20.7164 123.396L20.4894 121.402C20.4724 121.352 20.4813 121.318 20.5144 121.301C20.5484 121.284 20.5895 121.292 20.6404 121.327L22.2754 122.512C22.4766 122.663 22.6866 122.719 22.9047 122.676C23.122 122.635 23.2981 122.504 23.433 122.285C23.5841 122.016 23.6127 121.78 23.5207 121.578C23.4295 121.377 23.2739 121.234 23.0558 121.15L21.2188 120.317C21.1687 120.3 21.1428 120.275 21.1428 120.242C21.1428 120.207 21.1687 120.182 21.2188 120.165L23.0558 119.332C23.2909 119.232 23.442 119.072 23.509 118.853C23.5752 118.635 23.5502 118.416 23.433 118.197C23.2981 117.978 23.122 117.848 22.9047 117.805C22.6866 117.764 22.4766 117.811 22.2754 117.945L20.6404 119.157C20.5895 119.19 20.5484 119.198 20.5144 119.181C20.4813 119.165 20.4724 119.131 20.4894 119.08L20.7164 117.086C20.7325 116.834 20.6655 116.623 20.5144 116.456C20.3633 116.287 20.1631 116.204 19.9101 116.204C19.6759 116.204 19.4828 116.287 19.3317 116.456C19.1807 116.623 19.1226 116.834 19.1565 117.086L19.3827 119.08C19.3997 119.131 19.3907 119.165 19.3568 119.181C19.3237 119.198 19.2817 119.19 19.2316 119.157L17.5957 117.97C17.3955 117.818 17.181 117.764 16.9548 117.805C16.7286 117.848 16.5561 117.978 16.439 118.197C16.2888 118.466 16.2584 118.702 16.3514 118.904C16.4426 119.105 16.5981 119.249 16.8162 119.332L18.6523 120.165C18.7033 120.182 18.7283 120.207 18.7283 120.242C18.7283 120.275 18.7033 120.3 18.6523 120.317L16.8162 121.15C16.582 121.25 16.4256 121.411 16.3514 121.629C16.2754 121.848 16.304 122.067 16.439 122.285C16.5561 122.504 16.7286 122.635 16.9548 122.676C17.181 122.719 17.3955 122.672 17.5957 122.538L19.2316 121.327C19.2817 121.292 19.3237 121.284 19.3568 121.301C19.3907 121.318 19.3997 121.352 19.3827 121.402L19.1565 123.396C19.1226 123.648 19.1851 123.859 19.3451 124.026C19.5043 124.195 19.7099 124.278 19.9611 124.278Z" fill="#2AAEFF"/>
</svg>
